@startuml
skinparam ClassAttributeIconSize 0

class Applicazione{
- hierarchies: Map<String, Gerarchia>
- informazioni: InfoScambio
- offerte: List<Offerta>
+ <<constructor>> Applicazione()
+ getOfferte(): List<Offerta>
+ setOfferte(List<Offerta>): void
+ addGerarchia(String, Gerarchia): void
+ isHierarchyNameTaken(String): boolean
+ getHierarchies(): Map<String, Gerarchia>
+ setHierarchies(Map<String, Gerarchia>): void
+ getHierarchy(String): Gerarchia
+ saveData(): void
+ saveInfo(): void
+ prepareDirectoryStructure(): void
+ prepareInfoStructure(): void
+ setInfoScambio(InfoScambio): void
+ getInformazioni(): InfoScambio
+ createNewHierarchy(View): void
+ prepareOffersStructure(): void
+ getOfferte(Foglia): List<Offerta>
+ getOfferte(Fruitore): List<Offerta>
+ addOfferta(Offerta): void
+ saveOfferte(): void
}

class CampoNativo{
- obbligatorio: boolean
- type: Tipo
+ <<constructor>> CampoNativo(boolean, Tipo)
+ isObbligatorio(): boolean
+ getType(): Tipo
}

enum Tipo{
STRING
<<constructor>>Tipo(Function<String, Object>, Function<Object, String>)
+ serialize(Object): String
+ deserialize(String): Object
}

abstract class User{
- username: String
- hashedPw: String
+ <<constructor>> User(String, String)
+ toString(): String
+ equals(Object): boolean
+ hashCode(): int
+ getUsername(): String
+ getHashedPw(): String
- {static}hashPassword(String): String
+ authenticate(String): boolean
+ changePassword(String): void
+ changeUsername(String): void
}

class Configuratore{
+ <<constructor>> Configuratore(String, String)
}

class Fruitore{
+ <<constructor>> Fruitore(String, String)
}

class Gerarchia{
- root: Categoria
+ <<constructor>> Gerarchia(Categoria)
+ getRoot(): Categoria
+ toString(): String
}

enum Giorno{
LUNEDI
MARTEDI
MERCOLEDI
GIOVEDI
VENERDI
SABATO
DOMENICA
- giorno: String
<<constructor>> Giorno(String)
+ getGiorno(): String
}

class InfoScambio{
- piazza: String
- luoghi: List<String>
- giorni: List<Giorno>
- intervalliOrari: List<IntervalloOrario>
- scadenza: int
+ <<constructor>> InfoScambio(Applicazione, View)
+ toString(): String
+ getPiazza(): String
- configureExchangeSettings(Applicazione, View): void
- configureExpiration(View): void
- configureTimeRange(View): void
- configureDays(View): void
- configurePlaces(View): void
- configurePiazza(Applicazione, View): void
}

class IntervalloOrario{
- start: Orario
- end: Orario
+ <<constructor>> IntervalloOrario(Orario, Orario)
+ isValidRange(): boolean
+ isNewRange(List<IntervalloOrario>): boolean
- overlaps(IntervalloOrario): boolean
+ toString(): String
}

abstract class Categoria{
- nome: String
- descrizione: String
- campiNativi: Map<String, CampoNativo>
+ <<constructor>> Categoria(String, String)
+ getNome(): String
+ setNome(Nome): void
+ getDescrizione(): String
+ setDescrizione(String): void
+ getCampiNativi(): Map<String, CampoNativo>
+ setCampiNativi(Map<String, CampoNativo>): void
+ toString(): String
+ isNameTaken(String): boolean
- {static}isNameTaken(Categoria, String): boolean
+ isStructureValid(): boolean
- {static}isStructureValid(Categoria): boolean
- generaCampiNativiRadice(): Map<String, CampoNativo>
+ generaCampiNativi(Categoria, View): Map<String, CampoNativo>
+ equals(Object): boolean
+ hashCode(): int
+ toShortString(): String
}

class CategoriaEntry{
- cat: Categoria
- father: Nodo
- displayName: String
+ <<constructor>> CategoriaEntry(Categoria, Nodo, String)
+ getCat(): Categoria
+ getFather(): Nodo
+ getDisplayName(): String
+ {static}catAsNode(Categoria): Nodo
+ asNode(): Nodo
}

class Foglia{
+ <<constructor>> Foglia(String, String)
+ toString(): String
}

class Nodo{
- categorieFiglie: List<Categoria>
+ <<constructor>> Nodo(String, String)
+ getCategorieFiglie(): List<Categoria>
+ removeChild(Categoria): void
+ addChild(Categoria): void
+ toString(): String
}

class Orario{
- hour: int
- minutes: int
+ <<constructor>> Orario(int, int)
+ toString(): String
+ isValid(int, int): boolean
+ getMinutes(): int
+ getHour(): int
+ {static}askOrario(StartOrEnd, View): Orario
+ isLaterThan(Orario): boolean
+ equals(Object): boolean
+ hashCode(): int
}

enum StartOrEnd{
START
END
- startOrEnd: String
<<constructor>> StartOrEnd(String)
+ getStartOrEnd(): String
}

class Offerta{
- name: String
- categoria: String
- proprietario: Fruitore
- stato: StatoOfferta
- valoreCampi: Map<String, Object>
+ <<constructor>> Offerta(String, Foglia, Fruitore, StatoOfferta)
+ getStato(): StatoOfferta
+ setStato(StatoOfferta): void
+ getName(): String
+ getCategoria(): Foglia
+ getProprietario(): Fruitore
+ getValoreCampi(): Map<String, Object>
+ toString(): String
+ {static}viewOffersByCategory(Applicazione, View): void
+ {static}viewPersonalOffers(Fruitore, Applicazione, View): void
- {static}chooseLeaf(String, View, Applicazione): Foglia
+ {static}createOffer(Applicazione, View, Fruitore): void
- {static}inputField(Offerta, Map.Entry<String, CampoNativo>, View): void
+ {static}undoOffer(Applicazione, View, Fruitore): void
}

enum StatoOfferta{
APERTA
RITIRATA
}

class View{
+ <<constructor>> View()
+ showList(List<T>): void
+ showList(List<T>, Function<T, String>): void
+ choose(List<T>, Function<T, String>): T
- inInteger(): int
+ interactionMessage(InteractionMessage): void
+ askUsername(): String
+ askNewUsername(): String
+ askPassword(): String
+ askPiazza(): String
+ askLuogo(): String
+ askGiorno(): Giorno
+ askNonNegativeNum(String): int
+ message(String): void
+ errorMessage(ErrorMessage): void
+ in(String): String
+ inLine(String): String
+ askCustomPassword(): String
+ communicateCredentials(String, String): void
+ selectConfiguratoreAction(): String
+ selectFruitoreAction(): String
+ askDescription(): String
+ askCategoryName(): String
+ insertFieldName(): String
+ yesOrNoQuestion(String): boolean
+ findCategory(Categoria): CategoriaEntry
- getCategoriesAsList(Categoria): List<CategoriaEntry>
- getCategoriesAsList(Categoria, Nodo, List<CategoriaEntry>, String): List<CategoriaEntry>
}

enum ErrorMessage{
E_CREDENTIALS_ERROR
E_DIFFERENT_PASSWORDS
E_USERNAME_TAKEN
E_UNREGISTERED_USER
E_WRONG_PASSWORD
E_ILLICIT_CHOICE
E_EXISTING_ROOT_CATEGORY
E_EXISTING_NAME_IN_HIERARCHY
E_UNAUTHORIZED_CHOICE
E_WRONG_FORMAT
E_INVALID_TIME
E_INVALID_TIME_RANGE
E_INVALID_INPUT
E_NO_CATEGORIES
E_NO_OFFERS

- message: String
<<constructor>> ErrorMessage(String)
+ getMessage(): String
}

enum InteractionMessage{
CUSTOMIZE_CREDENTIALS
EXIT_MESSAGE
SAVED_CORRECTLY
AT_LEAST_TWO_CHILDREN
CHOOSE_CATEGORY
EXCHANGE_HOURS_EVERY_30_MINS
NO_INFO_YET
CURRENT_INFO
NO_HIERARCHIES_YET

- message: String
<<constructor>> InteractionMessage(String)
+ getMessage(): String
}

class UserDataStore{
+ {static}STD_USERNAME_LEN: int = 10
+ {static}STD_PW_LEN: int = 10
- userMap: Map<String, User>
+ <<constructor>> UserDataStore()
+ isUsernameTaken(String): boolean
+ registerNewConfiguratore(String, String): void
+ registerNewFruitore(String, String): Fruitore
+ updateUser(String, String, String): void
- {static}generateRandomPassword(int): String
- {static}generateRandomString(int): String
+ isLoginCorrect(String, String): boolean
+ isEmpty(): boolean
+ getUserMap(): Map<String, User>
+ setUserMap(Map<String, User>): void
+ addNewConfiguratore(View): void
+ addedNewFruitore(View): Fruitore
+ customizeConfiguratore(String, View): void
+ save(): void
+ load(): void
}

class Controller{
- dataStore: UserDataStore
- view: View
- app: Applicazione
+ <<constructor>> Controller()
+ firstAccessAsConfiguratore(): void
+ secondAccessAsConfiguratore(String): void
+ firstAccessAsFruitore(): void
+ secondAccessAsFruitore(String): void
- useAsFruitore(Fruitore): void
- useAsConfiguratore(): void
}

class Main{
+ {static}main(String): void
}

CampoNativo +-- Tipo
View +-- InteractionMessage
View +-- ErrorMessage
Orario +-- StartOrEnd
Offerta +-- StatoOfferta
Main ..> View
Main ..> Controller
Main ..> UserDataStore
Offerta --> "0..1 "Fruitore
Applicazione --> "0.. * " Offerta
UserDataStore --> "0.. * "  User
Controller --> "0.. 1 " UserDataStore
Controller --> "0.. 1 " View
Controller --> "0.. 1 " Applicazione
Offerta --> "0.. 1 " Foglia
CategoriaEntry --> "0.. 1 " Categoria
CategoriaEntry --> "0.. 1 " Nodo
Categoria --> "2.. * " CampoNativo
Gerarchia --> "0.. 1 " Categoria
Applicazione --> "0.. * " Gerarchia
IntervalloOrario --> "2 " Orario
Nodo --> "2.. * " Categoria
InfoScambio --> "1.. * " Giorno
Applicazione --> "0.. 1 " InfoScambio
InfoScambio --> "1.. * " IntervalloOrario
Categoria <|-- Nodo
Categoria <|-- Foglia
User <|-- Configuratore
User <|-- Fruitore

@enduml