@startuml
scale 750 width
[*] --> CreazioneProfilo : Primo accesso
CreazioneProfilo --> MenuPrincipale: Cambio credenziali
[*] --> MenuPrincipale: Accesso\ngenerico
MenuPrincipale -left-> SalvataggioDati: Richiesta\nsalvataggio\ndati
MenuPrincipale --> VisualizzazioneGerarchie: Richiesta\nvisualizzazione\ngerarchie
SalvataggioDati --> MenuPrincipale: Success
VisualizzazioneGerarchie -right-> MenuPrincipale: Success
MenuPrincipale --> CreazioneGerarchia: Richiesta\ncreazione\ngerarchia
CreazioneGerarchia --> MenuPrincipale: Success
MenuPrincipale --> ImpostazioneParametri: Richiesta\nimpostazione\nparametri
ImpostazioneParametri --> MenuPrincipale: Success
VisualizzazioneOfferteCategoria --> MenuPrincipale: Success
MenuPrincipale --> VisualizzazioneOfferteCategoria: Richiesta visualizzazione\nofferte categoria

MenuPrincipale -right-> [*]: Esci

@enduml